<?xml version="1.0" encoding="UTF-8"?>
<svg version="1.1" xmlns="http://www.w3.org/2000/svg" width="192" height="192">
<path d="M0 0 C1.44016479 0.00519653 1.44016479 0.00519653 2.90942383 0.01049805 C9.13085844 0.10381699 15.17944323 0.57182842 21.3125 1.625 C22.0122998 1.74254639 22.71209961 1.86009277 23.43310547 1.98120117 C27.40287348 2.75759294 28.65266731 3.34016731 31.625 6.3125 C29.645 8.9525 27.665 11.5925 25.625 14.3125 C26.31948242 14.43778076 27.01396484 14.56306152 27.72949219 14.69213867 C53.52250265 19.41115527 53.52250265 19.41115527 62.625 24.3125 C63.73746094 24.90675781 64.84992188 25.50101563 65.99609375 26.11328125 C72.00680877 29.46955334 72.00680877 29.46955334 74.625 31.3125 C74.625 31.9725 74.625 32.6325 74.625 33.3125 C75.615 33.3125 76.605 33.3125 77.625 33.3125 C77.625 33.9725 77.625 34.6325 77.625 35.3125 C78.181875 35.539375 78.73875 35.76625 79.3125 36 C82.27138397 37.67936658 84.32867011 39.85256391 86.625 42.3125 C87.28628906 42.96863281 87.94757813 43.62476563 88.62890625 44.30078125 C99.7110095 55.76834896 105.51268208 69.1299691 109.625 84.3125 C109.955 85.3025 110.285 86.2925 110.625 87.3125 C110.87918832 91.8100556 110.89611046 96.31017503 110.92016602 100.81396484 C110.93155714 102.29160231 110.95179837 103.76920301 110.98168945 105.24658203 C111.26045553 119.04783892 109.12046479 131.38527917 103 143.9375 C102.66661621 144.63480225 102.33323242 145.33210449 101.98974609 146.05053711 C98.47337832 153.10015509 94.01012664 159.55702078 88.625 165.3125 C87.965 165.3125 87.305 165.3125 86.625 165.3125 C86.295 166.3025 85.965 167.2925 85.625 168.3125 C84.965 168.3125 84.305 168.3125 83.625 168.3125 C83.625 168.9725 83.625 169.6325 83.625 170.3125 C77.23786483 176.28863691 70.07281036 180.94172865 62.1875 184.6875 C61.22469116 185.1508374 61.22469116 185.1508374 60.24243164 185.62353516 C48.69911782 190.84743384 37.48003277 193.00061755 24.92138672 192.88891602 C22.75721979 192.87504627 20.59739967 192.90928262 18.43359375 192.94726562 C5.15133704 193.02131416 -6.95099234 189.67283058 -18.75 183.5 C-19.40718018 183.16452148 -20.06436035 182.82904297 -20.74145508 182.48339844 C-26.52796142 179.42927087 -31.46844225 175.62954527 -36.375 171.3125 C-37.2309375 170.63960937 -38.086875 169.96671875 -38.96875 169.2734375 C-41.95078487 166.84327272 -44.04816241 164.3706294 -46.375 161.3125 C-46.375 160.6525 -46.375 159.9925 -46.375 159.3125 C-47.035 159.3125 -47.695 159.3125 -48.375 159.3125 C-48.375 158.3225 -48.375 157.3325 -48.375 156.3125 C-49.365 155.9825 -50.355 155.6525 -51.375 155.3125 C-52.49414062 153.78125 -52.49414062 153.78125 -53.53125 151.8125 C-53.91410156 151.08933594 -54.29695313 150.36617187 -54.69140625 149.62109375 C-55.08199219 148.85925781 -55.47257812 148.09742188 -55.875 147.3125 C-56.46087891 146.21615234 -56.46087891 146.21615234 -57.05859375 145.09765625 C-68.18565387 123.78015724 -69.27549635 99.09089212 -62.375 76.3125 C-59.08030114 66.50793063 -54.13209105 56.22688289 -47.375 48.3125 C-46.715 48.3125 -46.055 48.3125 -45.375 48.3125 C-45.375 46.9925 -45.375 45.6725 -45.375 44.3125 C-55.74104587 39.65011055 -66.05613262 35.82328262 -77.125 33.125 C-80.375 32.3125 -80.375 32.3125 -81.375 31.3125 C-81.4729057 29.81511876 -81.50474864 28.31307108 -81.5 26.8125 C-81.50257812 25.9978125 -81.50515625 25.183125 -81.5078125 24.34375 C-81.375 22.3125 -81.375 22.3125 -80.375 21.3125 C-70.37398062 19.59865937 -60.70881655 23.64310115 -51.37695312 26.76171875 C-49.23896854 27.4451329 -49.23896854 27.4451329 -46.375 27.3125 C-45.92125 26.384375 -45.4675 25.45625 -45 24.5 C-43.375 21.3125 -43.375 21.3125 -41.375 18.3125 C-40.715 18.3125 -40.055 18.3125 -39.375 18.3125 C-38.88 16.8275 -38.88 16.8275 -38.375 15.3125 C-37.715 15.3125 -37.055 15.3125 -36.375 15.3125 C-36.045 14.3225 -35.715 13.3325 -35.375 12.3125 C-24.54499968 4.0682091 -13.52952126 -0.07909239 0 0 Z " fill="#F38F0B" transform="translate(81.375,-0.3125)"/>
<path d="M0 0 C1.44016479 0.00519653 1.44016479 0.00519653 2.90942383 0.01049805 C9.13085844 0.10381699 15.17944323 0.57182842 21.3125 1.625 C22.0122998 1.74254639 22.71209961 1.86009277 23.43310547 1.98120117 C27.00480896 2.67974103 29.3968259 3.33325598 31.625 6.3125 C27.63889039 12.26146661 23.48541285 16.26458597 17.625 20.3125 C15.77000025 21.68637589 13.91587473 23.06143273 12.0625 24.4375 C10.25475449 25.73581244 8.44275842 27.02824405 6.625 28.3125 C6.03074219 28.73917969 5.43648438 29.16585938 4.82421875 29.60546875 C-5.86438037 36.52786173 -21.08882641 36.27129885 -33.375 37.3125 C-28.60313607 40.4965283 -25.96988611 40.59698573 -20.375 40.3125 C-19.625 42.4375 -19.625 42.4375 -19.375 45.3125 C-21.0625 48.375 -21.0625 48.375 -23.375 51.3125 C-23.9525 52.075625 -24.53 52.83875 -25.125 53.625 C-28.43888182 56.11041136 -31.27379558 56.03908637 -35.375 56.3125 C-36.17453138 53.02553767 -36.47158936 51.60226808 -35.375 48.3125 C-36.09945312 48.03019531 -36.82390625 47.74789062 -37.5703125 47.45703125 C-40.1830425 46.39083363 -42.7049264 45.21703675 -45.25 44 C-55.67627141 39.24170164 -66.7097797 36.12045722 -77.7421875 33.109375 C-80.375 32.3125 -80.375 32.3125 -81.375 31.3125 C-81.4729057 29.81511876 -81.50474864 28.31307108 -81.5 26.8125 C-81.50257812 25.9978125 -81.50515625 25.183125 -81.5078125 24.34375 C-81.375 22.3125 -81.375 22.3125 -80.375 21.3125 C-70.37398062 19.59865937 -60.70881655 23.64310115 -51.37695312 26.76171875 C-49.23896854 27.4451329 -49.23896854 27.4451329 -46.375 27.3125 C-45.92125 26.384375 -45.4675 25.45625 -45 24.5 C-43.375 21.3125 -43.375 21.3125 -41.375 18.3125 C-40.715 18.3125 -40.055 18.3125 -39.375 18.3125 C-38.88 16.8275 -38.88 16.8275 -38.375 15.3125 C-37.715 15.3125 -37.055 15.3125 -36.375 15.3125 C-36.045 14.3225 -35.715 13.3325 -35.375 12.3125 C-24.54499968 4.0682091 -13.52952126 -0.07909239 0 0 Z " fill="#5B9039" transform="translate(81.375,-0.3125)"/>
<path d="M0 0 C9.47817474 0.03756212 21.74952978 3.14551985 29.6875 8.4375 C29.873125 9.2625 30.05875 10.0875 30.25 10.9375 C31.41146592 13.6236067 31.41146592 13.6236067 33.82421875 14.06640625 C35.60154713 14.3612993 37.3817368 14.6393358 39.1640625 14.90234375 C41.6875 15.4375 41.6875 15.4375 44.8125 17.5625 C48.71921489 20.11035754 51.09865419 19.75397212 55.6875 19.4375 C56.4375 21.5625 56.4375 21.5625 56.6875 24.4375 C55 27.5 55 27.5 52.6875 30.4375 C52.11 31.200625 51.5325 31.96375 50.9375 32.75 C47.62361818 35.23541136 44.78870442 35.16408637 40.6875 35.4375 C39.88796862 32.15053767 39.59091064 30.72726808 40.6875 27.4375 C39.96304688 27.15519531 39.23859375 26.87289062 38.4921875 26.58203125 C35.8794575 25.51583363 33.3575736 24.34203675 30.8125 23.125 C20.38622859 18.36670164 9.3527203 15.24545722 -1.6796875 12.234375 C-4.3125 11.4375 -4.3125 11.4375 -5.3125 10.4375 C-5.4104057 8.94011876 -5.44224864 7.43807108 -5.4375 5.9375 C-5.44007813 5.1228125 -5.44265625 4.308125 -5.4453125 3.46875 C-5.20438407 -0.21603774 -3.29443225 0.16907662 0 0 Z " fill="#652111" transform="translate(5.3125,20.5625)"/>
</svg>
